# xmcd
#
# Track frame offsets:
#	150
#	9135
#	15592
#	24932
#	31497
#	39687
#	46187
#	50637
#	57342
#	67227
#	78295
#	84865
#	90610
#	98025
#	102652
#	112415
#	115430
#	121887
#	129547
#	134555
#	140447
#	146497
#	156845
#	164850
#	173342
#	178490
#	183822
#	189687
#	195112
#	199245
#	206097
#	210980
#	218245
#	227335
#	236875
#	244245
#	250157
#	255300
#	261377
#	266842
#	273497
#	276745
#	283565
#	289980
#	293680
#	301267
#	307827
#	315230
#	320805
#	324572
#
# Disc length: 4409 seconds
#
# Revision: 1
# Processed by: cddbd v1.5.1PL0 Copyright (c) Steve Scherf et al.
# Submitted via: CDex 1.50Beta5
#
DISCID=f0113732
DTITLE=山本秀樹 - テイルズ・オブ・エターニア リマスターオーディオ Disc 1
DYEAR=2001
DGENRE=Game
TTITLE0=FARAH THEME
TTITLE1=KEEL THEME
TTITLE2=RACE THEME
TTITLE3=REM THEME
TTITLE4=INFERIA FORCES
TTITLE5=MEREDY THEME
TTITLE6=CHAT THEME
TTITLE7=SHILESKA
TTITLE8=STRANGE THEME
TTITLE9=SADNESS THEME
TTITLE10=INFERIA MAP
TTITLE11=RACHEANS FOREST
TTITLE12=RACHEANS
TTITLE13=REGULUS DOJO
TTITLE14=MINTCHE
TTITLE15=MT MINTCHE
TTITLE16=ABILITY TEST
TTITLE17=NOSTOS CAVE
TTITLE18=MORLE
TTITLE19=UNDINE STREAM
TTITLE20=FOREST OF TEMPTATION
TTITLE21=INFERIA CITY
TTITLE22=INFERIA CASTLE
TTITLE23=ROYAL OBSERVATORY
TTITLE24=PORT
TTITLE25=SHIP
TTITLE26=BAROLE
TTITLE27=SYLPH CAVERN
TTITLE28=AIRIAL BOARD
TTITLE29=CHAMBARD
TTITLE30=EFREET GORGE
TTITLE31=MT FARLOS
TTITLE32=STONE ABODE
TTITLE33=CELESTIA MAP
TTITLE34=CAPE FORTRESS
TTITLE35=IMEN1
TTITLE36=DRAGON ROCK MOUNTAIN
TTITLE37=RAILROAD
TTITLE38=LUISHKA
TTITLE39=MINE OF GNOME
TTITLE40=CARD GAME
TTITLE41=GNOME VILAGE
TTITLE42=CHAT HUT
TTITLE43=PERTI1
TTITLE44=MT CELSIUS
TTITLE45=PERUTI2
TTITLE46=IMEN2
TTITLE47=TINNSIA
TTITLE48=RUINS OF VOLT
TTITLE49=GREAT BATTLE 1
EXTD=
EXTT0=
EXTT1=
EXTT2=
EXTT3=
EXTT4=
EXTT5=
EXTT6=
EXTT7=
EXTT8=
EXTT9=
EXTT10=
EXTT11=
EXTT12=
EXTT13=
EXTT14=
EXTT15=
EXTT16=
EXTT17=
EXTT18=
EXTT19=
EXTT20=
EXTT21=
EXTT22=
EXTT23=
EXTT24=
EXTT25=
EXTT26=
EXTT27=
EXTT28=
EXTT29=
EXTT30=
EXTT31=
EXTT32=
EXTT33=
EXTT34=
EXTT35=
EXTT36=
EXTT37=
EXTT38=
EXTT39=
EXTT40=
EXTT41=
EXTT42=
EXTT43=
EXTT44=
EXTT45=
EXTT46=
EXTT47=
EXTT48=
EXTT49=
PLAYORDER=
